<svg width="94" height="95" viewBox="0 0 94 95" fill="none" xmlns="http://www.w3.org/2000/svg">
<g clip-path="url(#clip0_1_124)">
<path d="M47.3107 19.4981C47.4736 19.5475 48.3146 20.6662 49.1625 22.0025C51.5918 25.7968 54.1236 27.6795 54.6007 26.0614C55.2337 23.9149 47.8285 16.0579 46.3742 17.3798C46.0391 17.6739 46.757 19.3302 47.3107 19.4981Z" fill="#8DB3ED"/>
<path d="M40.5783 31.38C42.646 31.4672 45.3001 31.7321 46.5344 31.9984C49.2506 32.534 49.8922 32.4047 49.6374 31.464C49.1603 29.5926 45.9056 27.9944 41.3497 27.4407C29.9256 25.9922 33.1897 31.0469 40.5783 31.38Z" fill="#8DB3ED"/>
<path d="M60.0818 15.7788C59.419 13.8151 57.4573 12.2851 56.7549 13.2233C56.0621 14.1286 56.3444 20.5098 57.1207 21.9683C58.856 25.2285 61.4759 19.8349 60.0818 15.7788Z" fill="#8DB3ED"/>
<path d="M52.8173 44.9838C68.9754 35.312 73.5542 28.9297 71.6855 18.5416C71.0865 15.1582 68.8747 14.2359 68.3727 17.1416C65.9726 31.056 61.6695 32.7735 42.3157 44.4984C30.3623 51.7034 23.6786 60.2904 23.7218 68.326C23.7576 75.424 26.7917 81.7397 29.8487 81.1195C30.8742 80.8907 30.8547 80.9568 29.9109 77.9005C26.0835 65.7318 31.7386 57.6249 52.8173 44.9838Z" fill="#1763DB"/>
</g>
<defs>
<clipPath id="clip0_1_124">
<rect width="75.086" height="75.9567" fill="white" transform="matrix(0.960658 0.291216 -0.283934 0.962836 21.5667 0)"/>
</clipPath>
</defs>
</svg>
