<svg width="93" height="95" viewBox="0 0 93 95" fill="none" xmlns="http://www.w3.org/2000/svg">
<g clip-path="url(#clip0_1_129)">
<path d="M74.0855 47.2964C74.0387 47.4619 72.9463 48.3261 71.6397 49.1996C67.9299 51.7022 66.1041 54.2869 67.7032 54.7517C69.8246 55.3684 77.4798 47.7818 76.1613 46.3243C75.8678 45.9883 74.2445 46.7339 74.0855 47.2964Z" fill="#1763DB" fill-opacity="0.49"/>
<path d="M62.3066 40.6144C62.2441 42.709 62.0131 45.3992 61.7648 46.652C61.268 49.4082 61.4025 50.0564 62.3262 49.7877C64.1641 49.2835 65.7015 45.9701 66.1954 41.3509C67.4931 29.7677 62.5513 33.1297 62.3066 40.6144Z" fill="#1763DB" fill-opacity="0.49"/>
<path d="M77.8931 60.1852C79.8198 59.4919 81.3046 57.4885 80.3726 56.7878C79.4731 56.0966 73.191 56.4545 71.7632 57.257C68.5717 59.0508 73.9137 61.6425 77.8931 60.1852Z" fill="#1763DB" fill-opacity="0.49"/>
<path d="M49.0461 53.16C58.7549 69.411 65.0929 73.9749 75.3037 71.9656C78.6294 71.3209 79.5128 69.071 76.6452 68.5955C62.913 66.3225 61.1728 61.985 49.4056 42.5215C42.174 30.5 33.6407 23.8297 25.7265 23.9642C18.7357 24.0805 12.5492 27.2239 13.1947 30.3122C13.4316 31.3479 13.3663 31.3289 16.3659 30.3388C28.3083 26.3261 36.3572 31.9604 49.0461 53.16Z" fill="#1763DB"/>
</g>
<defs>
<clipPath id="clip0_1_129">
<rect width="75.963" height="75.0796" fill="white" transform="matrix(-0.272801 0.964694 -0.962674 -0.279844 93 21.0107)"/>
</clipPath>
</defs>
</svg>
