<svg width="111" height="111" viewBox="0 0 111 111" fill="none" xmlns="http://www.w3.org/2000/svg">
<g clip-path="url(#clip0_1_40)">
<path fill-rule="evenodd" clip-rule="evenodd" d="M4.42587 36.1758C1.76092 42.3206 15.9662 88.0287 41.4542 95.5185C51.3122 98.4242 69.9887 89.0327 88.9782 71.6866C92.1091 68.8258 94.2383 66.8374 97.6602 64.5238C97.8725 64.3688 97.078 66.1641 95.8555 68.5324C92.9608 74.1396 92.3415 77.3045 93.7991 79.1376C94.5153 80.0146 94.9316 79.6781 95.721 77.5935C97.9719 71.6098 101.609 66.2313 107.997 59.5385C110.503 56.9063 111.493 52.1685 102.753 54.9569C95.3604 57.3157 90.7129 58.1585 83.2595 58.4129C78.4277 58.5872 76.7024 61.2032 80.2739 62.9146C81.5108 63.509 86.6307 63.4173 91.9338 62.7144L94.6381 62.3462C86.9043 69.381 86.4425 69.8483 79.8802 75.0839C64.2673 87.5126 51.1711 93.0583 42.8657 90.7336C21.8711 84.8356 11.5407 54.0077 5.50111 35.7163C5.34105 35.2147 4.72423 35.4697 4.42587 36.1758Z" fill="#1763DB" fill-opacity="0.59"/>
</g>
<defs>
<clipPath id="clip0_1_40">
<rect width="110.58" height="110.58" fill="white" transform="scale(1.0038)"/>
</clipPath>
</defs>
</svg>
