<svg width="85" height="40" viewBox="0 0 85 40" fill="none" xmlns="http://www.w3.org/2000/svg">
<path d="M13.2369 8H13.9038C16.2193 8.05034 18.4969 8.98154 20.1328 10.63C19.5288 11.2466 18.9122 11.8381 18.3208 12.4547C17.4021 11.6242 16.2948 10.9824 15.0867 10.7559C13.2998 10.3783 11.3745 10.7181 9.87701 11.7374C8.24112 12.807 7.13374 14.6191 6.89465 16.557C6.63039 18.4698 7.17149 20.4832 8.41729 21.9681C9.61275 23.4152 11.4374 24.3213 13.325 24.3842C15.0867 24.4849 16.924 23.9437 18.2075 22.7105C19.2142 21.8422 19.6798 20.5209 19.8308 19.2374C17.7419 19.2374 15.653 19.25 13.5641 19.2374V16.6451H22.3602C22.8132 19.4261 22.1588 22.5595 20.0447 24.5478C18.6354 25.9572 16.6849 26.7877 14.6966 26.9513C12.7713 27.1401 10.783 26.7751 9.07165 25.8439C7.02048 24.7491 5.38459 22.8993 4.57922 20.7223C3.82419 18.7214 3.81161 16.4564 4.5163 14.4429C5.15808 12.6057 6.39129 10.9824 7.97686 9.84983C9.4995 8.72986 11.3493 8.11325 13.2369 8Z" fill="#B7BAC7"/>
<path d="M63.698 8.65414H66.3909V26.6238C65.4975 26.6238 64.5914 26.6364 63.698 26.6113C63.7106 20.6339 63.698 14.644 63.698 8.65414Z" fill="#B7BAC7"/>
<path d="M28.3501 14.8833C30.0111 14.5687 31.8106 14.921 33.1823 15.9152C34.4281 16.796 35.2963 18.1803 35.5606 19.6903C35.9004 21.4395 35.4725 23.3522 34.34 24.7364C33.1193 26.2842 31.1185 27.1148 29.168 26.9889C27.3811 26.8883 25.6445 25.9948 24.5875 24.5351C23.392 22.9244 23.1026 20.7096 23.757 18.822C24.4113 16.796 26.2611 15.2482 28.3501 14.8833ZM28.7276 17.2742C28.048 17.4504 27.4189 17.8405 26.9658 18.3942C25.7452 19.8539 25.8207 22.2323 27.1672 23.5913C27.9348 24.3715 29.0925 24.7364 30.1621 24.5225C31.1563 24.3463 32.0245 23.6794 32.5027 22.7985C33.3333 21.301 33.0942 19.2373 31.8232 18.067C31.0053 17.312 29.8098 16.9974 28.7276 17.2742Z" fill="#B7BAC7"/>
<path d="M41.6889 14.8833C43.5891 14.5184 45.6654 15.0469 47.0874 16.3808C49.4028 18.4571 49.6545 22.3455 47.6788 24.7364C46.4834 26.2465 44.5455 27.077 42.6327 26.9889C40.8081 26.9386 39.0086 26.0326 37.9264 24.5351C36.7057 22.8866 36.4415 20.6215 37.1336 18.6962C37.8257 16.7331 39.6378 15.2356 41.6889 14.8833ZM42.0664 17.2742C41.3869 17.4504 40.7577 17.8405 40.3047 18.3816C39.0967 19.8162 39.147 22.1567 40.4431 23.5284C41.2107 24.3463 42.4062 24.749 43.5136 24.5225C44.4951 24.3337 45.376 23.6794 45.8542 22.7985C46.6721 21.2885 46.433 19.2247 45.1495 18.0544C44.3315 17.2994 43.1361 16.9974 42.0664 17.2742Z" fill="#B7BAC7"/>
<path d="M53.0018 15.6131C54.4489 14.7071 56.3743 14.4554 57.9347 15.2356C58.4254 15.4495 58.8281 15.8144 59.2182 16.1794C59.2308 15.8396 59.2182 15.4873 59.2308 15.1349C60.0739 15.1475 60.917 15.1349 61.7727 15.1475V26.2464C61.7602 27.9201 61.3323 29.6944 60.1243 30.915C58.803 32.2615 56.777 32.6767 54.9523 32.3999C53.0018 32.1105 51.303 30.6885 50.548 28.889C51.303 28.5241 52.0958 28.2347 52.876 27.8949C53.3164 28.9268 54.2099 29.8076 55.3298 30.009C56.4498 30.2103 57.7459 29.9335 58.4758 29.0023C59.256 28.0459 59.256 26.7372 59.2182 25.5669C58.6394 26.1332 57.9724 26.6365 57.1671 26.8253C55.4179 27.316 53.4926 26.712 52.1461 25.5291C50.7871 24.3463 49.9817 22.5216 50.0572 20.7095C50.0949 18.6584 51.2527 16.6827 53.0018 15.6131ZM55.6067 17.2238C54.839 17.3497 54.1218 17.7775 53.631 18.3689C52.4481 19.7783 52.4481 22.0308 53.6436 23.4151C54.3231 24.233 55.4179 24.686 56.4749 24.5728C57.4691 24.4721 58.3877 23.8429 58.8785 22.9746C59.709 21.5023 59.5706 19.5015 58.4506 18.2179C57.7585 17.4252 56.6511 17.0351 55.6067 17.2238Z" fill="#B7BAC7"/>
<path d="M69.625 16.2549C71.1351 14.8456 73.4631 14.3674 75.401 15.1098C77.2382 15.8019 78.4085 17.5511 79 19.3506C76.2693 20.4831 73.5512 21.6031 70.8205 22.7356C71.198 23.4529 71.7768 24.1073 72.557 24.3715C73.6518 24.7616 74.9606 24.6232 75.8792 23.8933C76.2441 23.6165 76.5335 23.2516 76.8104 22.8992C77.5025 23.3648 78.1946 23.8178 78.8867 24.2834C77.9052 25.7557 76.2567 26.7876 74.4824 26.9512C72.5193 27.1903 70.4304 26.4353 69.1594 24.9C67.0705 22.4839 67.2718 18.4319 69.625 16.2549ZM70.9715 18.583C70.5436 19.1996 70.3675 19.9546 70.38 20.697C72.2047 19.942 74.0294 19.187 75.854 18.4194C75.552 17.7147 74.8221 17.2868 74.0797 17.1736C72.8842 16.9596 71.6384 17.6014 70.9715 18.583Z" fill="#B7BAC7"/>
</svg>
