<svg width="140" height="140" viewBox="0 0 140 140" fill="none" xmlns="http://www.w3.org/2000/svg">
<g clip-path="url(#clip0_1_134)">
<path d="M54.1286 41.8081C53.68 42.0994 53.0948 45.0672 52.6095 49.501C50.9777 64.6657 50.071 64.1289 51.2093 64.9932C52.4278 65.9184 52.5923 65.3356 54.1073 55.6175C55.7271 45.1955 55.745 40.8112 54.1286 41.8081Z" fill="#1763DB"/>
<path d="M39.5301 58.8046C39.1635 58.8548 39.1417 59.1165 39.2705 60.4781C39.4759 62.5044 40.9422 64.4013 41.6118 63.5195C42.1435 62.7859 40.3481 58.6927 39.5301 58.8046Z" fill="#1763DB"/>
<path d="M33.0092 61.9664C27.2293 53.5338 25.0389 50.8595 23.7111 50.7108C22.6289 50.5715 22.8344 51.233 24.5329 53.3568C25.9998 55.153 28.5157 58.6304 30.9065 62.1392C32.8663 65.0174 33.4025 65.5761 34.3469 65.8636C35.6613 66.2297 35.3602 65.3945 33.0092 61.9664Z" fill="#1763DB"/>
<path d="M69.728 47.561C69.2915 47.8362 67.3338 52.1123 66.3388 54.9206C66.1013 55.5996 65.3584 57.3104 64.702 58.7076C63.4056 61.4135 63.3883 61.6027 64.3021 62.2966C65.1679 62.954 65.1436 62.9859 67.0718 58.2827C70.4338 50.0934 71.3039 46.584 69.728 47.561Z" fill="#1763DB"/>
<path d="M38.0078 49.9905C38.3902 52.0501 38.0324 53.3202 39.2188 54.221C41.1267 55.6696 41.3042 55.6022 40.7684 51.581C39.7778 44.1309 37.9775 38.1133 36.6979 38.001C35.4664 37.9253 37.0793 42.2589 38.0078 49.9905Z" fill="#1763DB"/>
<path d="M98.7308 90.5873C100.728 90.4863 102.333 90.0369 102.772 89.4597C103.38 88.6581 102.569 87.6627 101.244 87.6428C92.4566 87.4659 82.1559 89.1482 82.481 90.6841C82.8022 92.1918 84.2107 92.3008 91.4269 91.3853C94.6057 90.9935 97.8891 90.6306 98.7308 90.5873Z" fill="#1763DB"/>
<path d="M86.1248 60.7193C84.3983 61.9612 80.988 65.3874 72.8608 71.93C71.2427 73.2289 71.2185 73.2608 71.3663 74.1313C71.491 74.8325 72.183 75.5856 72.7785 75.6335C73.2735 75.6807 84.4721 66.491 88.0471 63.1142C89.4159 61.7776 88.098 59.2856 86.1248 60.7193Z" fill="#1763DB"/>
<path d="M100.909 102.73C95.0008 100.392 83.4044 97.2234 82.2865 97.6637C81.5077 97.957 82.5207 99.5855 83.7383 99.9792L88.2874 101.411C95.2838 103.615 104.241 105.866 104.521 105.497C105.077 104.732 104.099 103.989 100.909 102.73Z" fill="#1763DB"/>
<path d="M95.8398 72.9229C95.2142 73.1808 93.4349 73.8266 88.373 75.3668C86.0821 76.0538 81.7877 77.8481 81.4956 78.2329C80.9112 79.0024 85.1124 77.9966 92.8734 75.4981C94.5515 74.9524 96.1687 74.4869 96.4828 74.4727C97.9451 74.3445 97.0102 72.4467 95.8398 72.9229Z" fill="#1763DB"/>
</g>
<defs>
<clipPath id="clip0_1_134">
<rect width="99.2625" height="99.2625" fill="white" transform="translate(60.4226) scale(1.0066) rotate(37.2092)"/>
</clipPath>
</defs>
</svg>
