<svg width="16" height="16" viewBox="0 0 16 16" fill="none" xmlns="http://www.w3.org/2000/svg">
<path d="M8.7496 0.000704585C12.7525 0.000704585 15.9993 3.24743 15.9993 7.25037C15.9993 7.66598 15.6649 8.00034 15.2493 8.00034C14.8337 8.00034 14.4993 7.66598 14.4993 7.25037C14.4993 4.07552 11.9245 1.50064 8.7496 1.50064C8.33399 1.50064 7.99963 1.16628 7.99963 0.75067C7.99963 0.335064 8.33399 0.000704585 8.7496 0.000704585ZM8.99959 6.00043C9.26479 6.00043 9.51913 6.10578 9.70666 6.29331C9.89419 6.48084 9.99954 6.73518 9.99954 7.00038C9.99954 7.26559 9.89419 7.51993 9.70666 7.70746C9.51913 7.89499 9.26479 8.00034 8.99959 8.00034C8.73438 8.00034 8.48004 7.89499 8.29251 7.70746C8.10499 7.51993 7.99963 7.26559 7.99963 7.00038C7.99963 6.73518 8.10499 6.48084 8.29251 6.29331C8.48004 6.10578 8.73438 6.00043 8.99959 6.00043ZM7.99963 3.75053C7.99963 3.33493 8.33399 3.00057 8.7496 3.00057C11.0964 3.00057 12.9994 4.90361 12.9994 7.25037C12.9994 7.66598 12.665 8.00034 12.2494 8.00034C11.8338 8.00034 11.4995 7.66598 11.4995 7.25037C11.4995 5.73169 10.2683 4.5005 8.7496 4.5005C8.33399 4.5005 7.99963 4.16614 7.99963 3.75053ZM3.67171 0.0444526C4.27793 -0.121165 4.91228 0.188196 5.15289 0.769419L6.40283 3.76928C6.61532 4.27863 6.46845 4.86923 6.04035 5.21609L4.49979 6.47853C5.54037 8.67843 7.32154 10.4596 9.52144 11.5002L10.7808 9.95962C11.1307 9.53152 11.7182 9.38465 12.2276 9.59714L15.2274 10.8471C15.8087 11.0877 16.118 11.722 15.9524 12.3283L15.2024 15.0781C15.0556 15.6219 14.5618 16 13.9994 16C6.26846 16 0 9.73151 0 2.00061C0 1.43814 0.378108 0.944411 0.921833 0.794418L3.67171 0.0444526Z" fill="#1763DB"/>
</svg>
