<svg width="13" height="13" viewBox="0 0 13 13" fill="none" xmlns="http://www.w3.org/2000/svg">
<path d="M9.35336 7.92244C8.82565 8.79181 7.7364 9.43792 6.50845 9.43792C4.82045 9.43792 3.46057 8.07466 3.46057 6.39005C3.46057 4.70543 4.82383 3.34217 6.50845 3.34217C7.7364 3.34217 8.82565 4.02211 9.35336 4.90839V7.92244ZM9.35336 0.25709V1.70491C8.75799 0.700233 7.27634 0 5.72365 0C2.52016 0 0 2.82799 0 6.37313C0 9.91827 2.52016 12.7801 5.72365 12.7801C7.27296 12.7801 8.75461 12.0832 9.35336 11.0752V12.523H13V0.25709H9.35336Z" fill="#B7BAC7"/>
</svg>
