<svg width="716" height="271" viewBox="0 0 716 271" fill="none" xmlns="http://www.w3.org/2000/svg">
<path opacity="0.2" d="M675.066 47.4987C673.657 47.4987 672.314 48.0929 671.366 49.135L664.189 57.0289C663.352 57.9493 662.888 59.1487 662.888 60.3927V87.0743C662.888 89.8358 660.65 92.0743 657.888 92.0743H657.258C654.496 92.0743 652.258 89.8358 652.258 87.0743V4.99999C652.258 2.23857 650.019 0 647.258 0H609.752C606.99 0 604.752 2.23858 604.752 5V201.543C604.752 206.113 599.127 208.288 596.052 204.906L591.768 200.194C590.931 199.273 590.467 198.074 590.467 196.83V80.2669C590.467 77.5054 588.229 75.2669 585.467 75.2669H489.825C487.064 75.2669 484.825 77.5054 484.825 80.2669V101.689C484.825 104.451 482.587 106.689 479.825 106.689H434.015C431.253 106.689 429.015 108.928 429.015 111.689V205.34V243.777C429.015 246.538 426.776 248.777 424.015 248.777H384.987C382.225 248.777 379.987 246.538 379.987 243.777V125.489C379.987 122.727 377.748 120.489 374.987 120.489H370.805C368.044 120.489 365.805 118.25 365.805 115.489V75.5776C365.805 72.8162 363.567 70.5776 360.805 70.5776H341.733C338.972 70.5776 336.733 72.8162 336.733 75.5776V148.244C336.733 151.005 334.495 153.244 331.733 153.244H326.544C324.731 153.244 323.261 154.714 323.261 156.527C323.261 159.891 318.804 161.08 317.129 158.163L307.685 141.716C306.793 140.163 305.139 139.206 303.349 139.206H281.462C278.701 139.206 276.462 136.967 276.462 134.206V37.3647C276.462 34.6033 274.224 32.3647 271.462 32.3647H221.239C219.831 32.3647 218.487 32.9588 217.54 34.0009L215.365 36.393C214.528 37.3135 214.064 38.5128 214.064 39.7569V70.5776V102.232C214.064 104.993 211.825 107.232 209.064 107.232H202.755C199.994 107.232 197.755 104.993 197.755 102.232V14.7481C197.755 11.9867 195.517 9.74808 192.755 9.74808H153.829C151.068 9.74808 148.829 11.9867 148.829 14.7481V24.1926C148.829 25.4365 148.366 26.6358 147.529 27.5562L140.558 35.2236C139.721 36.144 139.257 37.3433 139.257 38.5872V197.765C139.257 200.526 137.018 202.765 134.257 202.765H133.266C130.505 202.765 128.266 200.526 128.266 197.765V72.5992C128.266 70.8368 126.838 69.4081 125.075 69.4081C123.313 69.4081 121.884 67.9794 121.884 66.217V61.5402C121.884 58.7788 119.646 56.5402 116.884 56.5402H67.7253C66.3168 56.5402 64.9735 57.1343 64.0259 58.1765L57.2415 65.638C56.4046 66.5584 55.9409 67.7577 55.9409 69.0017V76.8859C55.9409 79.6473 53.7023 81.8859 50.9409 81.8859H7.68666C4.95447 81.8859 2.7282 84.079 2.68722 86.8109L0.000561997 265.925C-0.0412939 268.715 2.20924 271 5 271H176.997C177.105 271 177.192 270.913 177.192 270.805C177.192 270.697 177.279 270.61 177.387 270.61H357.101C357.209 270.61 357.296 270.697 357.296 270.805C357.296 270.913 357.383 271 357.491 271H429.015H532.437H710.377C713.138 271 715.377 268.761 715.377 266V52.4987C715.377 49.7373 713.138 47.4987 710.377 47.4987H675.066Z" fill="url(#paint0_linear_1_561)"/>
<defs>
<linearGradient id="paint0_linear_1_561" x1="357.651" y1="271" x2="357.651" y2="0" gradientUnits="userSpaceOnUse">
<stop stop-color="white"/>
<stop offset="1" stop-color="white"/>
</linearGradient>
</defs>
</svg>
