<svg width="716" height="271" viewBox="0 0 716 271" fill="none" xmlns="http://www.w3.org/2000/svg">
<path opacity="0.2" d="M40.3112 47.4987C41.7197 47.4987 43.063 48.0929 44.0106 49.135L51.1882 57.0289C52.025 57.9493 52.4888 59.1487 52.4888 60.3927V87.0743C52.4888 89.8358 54.7274 92.0743 57.4888 92.0743H58.1193C60.8807 92.0743 63.1193 89.8358 63.1193 87.0743V4.99999C63.1193 2.23857 65.3579 0 68.1193 0H105.625C108.386 0 110.625 2.23858 110.625 5V201.543C110.625 206.113 116.25 208.288 119.325 204.906L123.609 200.194C124.446 199.273 124.91 198.074 124.91 196.83V80.2669C124.91 77.5054 127.148 75.2669 129.91 75.2669H225.552C228.313 75.2669 230.552 77.5054 230.552 80.2669V101.689C230.552 104.451 232.79 106.689 235.552 106.689H281.362C284.124 106.689 286.362 108.928 286.362 111.689V205.34V243.777C286.362 246.538 288.601 248.777 291.362 248.777H330.39C333.152 248.777 335.39 246.538 335.39 243.777V125.489C335.39 122.727 337.629 120.489 340.39 120.489H344.572C347.333 120.489 349.572 118.25 349.572 115.489V75.5776C349.572 72.8162 351.81 70.5776 354.572 70.5776H373.644C376.405 70.5776 378.644 72.8162 378.644 75.5776V148.244C378.644 151.005 380.882 153.244 383.644 153.244H388.832C390.646 153.244 392.116 154.714 392.116 156.527C392.116 159.891 396.573 161.08 398.248 158.163L407.692 141.716C408.584 140.163 410.238 139.206 412.028 139.206H433.915C436.676 139.206 438.915 136.967 438.915 134.206V37.3647C438.915 34.6033 441.153 32.3647 443.915 32.3647H494.138C495.546 32.3647 496.89 32.9588 497.837 34.0009L500.012 36.393C500.849 37.3135 501.313 38.5128 501.313 39.7569V70.5776V102.232C501.313 104.993 503.552 107.232 506.313 107.232H512.622C515.383 107.232 517.622 104.993 517.622 102.232V14.7481C517.622 11.9867 519.86 9.74808 522.622 9.74808H561.548C564.309 9.74808 566.548 11.9867 566.548 14.7481V24.1926C566.548 25.4365 567.011 26.6358 567.848 27.5562L574.819 35.2236C575.656 36.144 576.12 37.3433 576.12 38.5872V197.765C576.12 200.526 578.359 202.765 581.12 202.765H582.111C584.872 202.765 587.111 200.526 587.111 197.765V72.5992C587.111 70.8368 588.539 69.4081 590.302 69.4081C592.064 69.4081 593.493 67.9794 593.493 66.217V61.5402C593.493 58.7788 595.731 56.5402 598.493 56.5402H647.652C649.06 56.5402 650.403 57.1343 651.351 58.1765L658.135 65.638C658.972 66.5584 659.436 67.7577 659.436 69.0017V76.8859C659.436 79.6473 661.675 81.8859 664.436 81.8859H707.69C710.422 81.8859 712.649 84.079 712.69 86.8109L715.376 265.925C715.418 268.715 713.168 271 710.377 271H538.38C538.272 271 538.185 270.913 538.185 270.805C538.185 270.697 538.098 270.61 537.99 270.61H358.276C358.168 270.61 358.081 270.697 358.081 270.805C358.081 270.913 357.994 271 357.886 271H286.362H182.94H5C2.23853 271 0 268.761 0 266V52.4987C0 49.7373 2.23853 47.4987 5 47.4987H40.3112Z" fill="url(#paint0_linear_1_562)"/>
<defs>
<linearGradient id="paint0_linear_1_562" x1="357.726" y1="271" x2="357.726" y2="0" gradientUnits="userSpaceOnUse">
<stop stop-color="white"/>
<stop offset="1" stop-color="white"/>
</linearGradient>
</defs>
</svg>
