<svg width="55" height="18" viewBox="0 0 55 18" fill="none" xmlns="http://www.w3.org/2000/svg">
<path fill-rule="evenodd" clip-rule="evenodd" d="M0 15.8025L1.00929 13.4572C2.09946 14.2724 3.55193 14.6962 4.985 14.6962C6.04282 14.6962 6.71244 14.2886 6.71244 13.6707C6.69627 11.9433 0.375251 13.2955 0.326727 8.96393C0.310553 6.76419 2.26444 5.0691 5.03352 5.0691C6.68009 5.0691 8.32343 5.4767 9.4977 6.40512L8.55311 8.79895C7.47911 8.11315 6.1431 7.62468 4.87178 7.62468C4.00806 7.62468 3.43871 8.03227 3.43871 8.55309C3.45489 10.2482 9.82443 9.31977 9.88913 13.4572C9.88913 15.7055 7.98376 17.2873 5.24703 17.2873C3.24138 17.2841 1.40072 16.8118 0 15.8025ZM38.7575 12.6097C38.2528 13.4896 37.3082 14.0913 36.2148 14.0913C34.6006 14.0913 33.3002 12.7876 33.3002 11.1766C33.3002 9.56562 34.6038 8.26195 36.2148 8.26195C37.305 8.26195 38.2528 8.86364 38.7575 9.74354L41.5427 8.19725C40.5011 6.34042 38.4954 5.0691 36.2148 5.0691C32.8408 5.0691 30.1041 7.80583 30.1041 11.1798C30.1041 14.5538 32.8408 17.2906 36.2148 17.2906C38.5116 17.2906 40.5011 16.0354 41.5427 14.1624L38.7575 12.6097ZM11.2898 0H14.7771V17.0577H11.2898V0ZM42.9111 0V17.0577H46.3983V11.94L50.5358 17.0577H55L49.7368 10.9793L54.6085 5.30848H50.3385L46.3951 10.0153V0H42.9111Z" fill="#B7BAC7"/>
</svg>
