<svg width="24" height="24" viewBox="0 0 24 24" fill="none" xmlns="http://www.w3.org/2000/svg">
<path d="M11.2084 14.4584L9.66669 16.0001C9.34169 16.3251 8.82502 16.3251 8.49169 16.0084C8.40002 15.9167 8.30835 15.8334 8.21669 15.7417C7.35835 14.8751 6.58335 13.9667 5.89169 13.0167C5.20835 12.0667 4.65835 11.1167 4.25835 10.1751C3.86669 9.22508 3.66669 8.31675 3.66669 7.45008C3.66669 6.88341 3.76669 6.34175 3.96669 5.84175C4.16669 5.33341 4.48335 4.86675 4.92502 4.45008C5.45835 3.92508 6.04169 3.66675 6.65835 3.66675C6.89169 3.66675 7.12502 3.71675 7.33335 3.81675C7.55002 3.91675 7.74169 4.06675 7.89169 4.28341L9.82502 7.00841C9.97502 7.21675 10.0834 7.40841 10.1584 7.59175C10.2334 7.76675 10.275 7.94175 10.275 8.10008C10.275 8.30008 10.2167 8.50008 10.1 8.69175C9.99169 8.88341 9.83335 9.08341 9.63335 9.28341L9.00002 9.94175C8.90835 10.0334 8.86669 10.1417 8.86669 10.2751C8.86669 10.3417 8.87502 10.4001 8.89169 10.4667C8.91669 10.5334 8.94169 10.5834 8.95835 10.6334C9.10835 10.9084 9.36669 11.2667 9.73335 11.7001C10.1084 12.1334 10.5084 12.5751 10.9417 13.0167C11.025 13.1001 11.1167 13.1834 11.2 13.2667C11.5334 13.5917 11.5417 14.1251 11.2084 14.4584Z" fill="#1763DB"/>
<path d="M20.3083 17.275C20.3083 17.5083 20.2667 17.75 20.1833 17.9833C20.1583 18.05 20.1333 18.1166 20.1 18.1833C19.9583 18.4833 19.775 18.7666 19.5333 19.0333C19.125 19.4833 18.675 19.8083 18.1667 20.0166C18.1583 20.0166 18.15 20.025 18.1417 20.025C17.65 20.225 17.1167 20.3333 16.5417 20.3333C15.6917 20.3333 14.7833 20.1333 13.825 19.725C12.8667 19.3166 11.9083 18.7666 10.9583 18.075C10.6333 17.8333 10.3083 17.5916 10 17.3333L12.725 14.6083C12.9583 14.7833 13.1667 14.9166 13.3417 15.0083C13.3833 15.025 13.4333 15.05 13.4917 15.075C13.5583 15.1 13.625 15.1083 13.7 15.1083C13.8417 15.1083 13.95 15.0583 14.0417 14.9666L14.675 14.3416C14.8833 14.1333 15.0833 13.975 15.275 13.875C15.4667 13.7583 15.6583 13.7 15.8667 13.7C16.025 13.7 16.1917 13.7333 16.375 13.8083C16.5583 13.8833 16.75 13.9916 16.9583 14.1333L19.7167 16.0916C19.9333 16.2416 20.0833 16.4166 20.175 16.625C20.2583 16.8333 20.3083 17.0416 20.3083 17.275Z" fill="#1763DB"/>
</svg>
