<svg width="20" height="20" viewBox="0 0 20 20" fill="none" xmlns="http://www.w3.org/2000/svg">
<path d="M9.22496 1H4.03329C2.37496 1 1.54163 1.84167 1.54163 3.51667V16.8333H6.04163V13.7083C6.04163 13.3667 6.32496 13.0833 6.66663 13.0833C7.00829 13.0833 7.29163 13.3583 7.29163 13.7083V16.8333H11.7083V3.51667C11.7083 1.84167 10.8833 1 9.22496 1ZM8.74996 9.125H4.62496C4.28329 9.125 3.99996 8.84167 3.99996 8.5C3.99996 8.15833 4.28329 7.875 4.62496 7.875H8.74996C9.09163 7.875 9.37496 8.15833 9.37496 8.5C9.37496 8.84167 9.09163 9.125 8.74996 9.125ZM8.74996 6H4.62496C4.28329 6 3.99996 5.71667 3.99996 5.375C3.99996 5.03333 4.28329 4.75 4.62496 4.75H8.74996C9.09163 4.75 9.37496 5.03333 9.37496 5.375C9.37496 5.71667 9.09163 6 8.74996 6Z" fill="#1763DB"/>
<path d="M18.9583 16.2086H17.0667V13.7086C17.8583 13.4503 18.4333 12.7086 18.4333 11.8336V10.1669C18.4333 9.07526 17.5417 8.18359 16.45 8.18359C15.3583 8.18359 14.4667 9.07526 14.4667 10.1669V11.8336C14.4667 12.7003 15.0333 13.4336 15.8083 13.7003V16.2086H0.625C0.283333 16.2086 0 16.4919 0 16.8336C0 17.1753 0.283333 17.4586 0.625 17.4586H16.4C16.4167 17.4586 16.425 17.4669 16.4417 17.4669C16.4583 17.4669 16.4667 17.4586 16.4833 17.4586H18.9583C19.3 17.4586 19.5833 17.1753 19.5833 16.8336C19.5833 16.4919 19.3 16.2086 18.9583 16.2086Z" fill="#1763DB"/>
</svg>
